<svg width="25" height="24" viewBox="0 0 25 24" fill="none" xmlns="http://www.w3.org/2000/svg">
<path d="M18.76 13.027C18.34 13.437 18.1 14.027 18.16 14.657C18.25 15.737 19.24 16.527 20.32 16.527H22.22V17.717C22.22 19.787 20.53 21.4771 18.46 21.4771H8.35C8.66 21.2171 8.93 20.897 9.14 20.537C9.51 19.937 9.72 19.2271 9.72 18.4771C9.72 16.2671 7.93 14.4771 5.72 14.4771C4.78 14.4771 3.91 14.8071 3.22 15.3571V10.9871C3.22 8.91706 4.91 7.22705 6.98 7.22705H18.46C20.53 7.22705 22.22 8.91706 22.22 10.9871V12.4271H20.2C19.64 12.4271 19.13 12.647 18.76 13.027Z" stroke="#17192B" stroke-width="1.5" stroke-linecap="round" stroke-linejoin="round"/>
<path opacity="0.4" d="M3.22 11.8871V7.31715C3.22 6.12715 3.95 5.06711 5.06 4.64711L13 1.64711C14.24 1.17711 15.57 2.09714 15.57 3.42714V7.22713" stroke="#17192B" stroke-width="1.5" stroke-linecap="round" stroke-linejoin="round"/>
<path d="M23.28 13.4472V15.5073C23.28 16.0573 22.84 16.5072 22.28 16.5272H20.32C19.24 16.5272 18.25 15.7372 18.16 14.6572C18.1 14.0272 18.34 13.4372 18.76 13.0272C19.13 12.6472 19.64 12.4272 20.2 12.4272H22.28C22.84 12.4472 23.28 12.8972 23.28 13.4472Z" stroke="#17192B" stroke-width="1.5" stroke-linecap="round" stroke-linejoin="round"/>
<path opacity="0.4" d="M7.72 11.4771H14.72" stroke="#17192B" stroke-width="1.5" stroke-linecap="round" stroke-linejoin="round"/>
<path d="M9.72 18.4771C9.72 19.2271 9.51 19.937 9.14 20.537C8.93 20.897 8.66 21.2171 8.35 21.4771C7.65 22.1071 6.73 22.4771 5.72 22.4771C4.26 22.4771 2.99 21.697 2.3 20.537C1.93 19.937 1.72 19.2271 1.72 18.4771C1.72 17.2171 2.3 16.0871 3.22 15.3571C3.91 14.8071 4.78 14.4771 5.72 14.4771C7.93 14.4771 9.72 16.2671 9.72 18.4771Z" stroke="#17192B" stroke-width="1.5" stroke-miterlimit="10" stroke-linecap="round" stroke-linejoin="round"/>
<path d="M7.21001 18.457H4.23001" stroke="#17192B" stroke-width="1.5" stroke-miterlimit="10" stroke-linecap="round" stroke-linejoin="round"/>
<path d="M5.72 16.9971V19.9871" stroke="#17192B" stroke-width="1.5" stroke-miterlimit="10" stroke-linecap="round" stroke-linejoin="round"/>
</svg>
