<svg width="20" height="20" viewBox="0 0 20 20" fill="none" xmlns="http://www.w3.org/2000/svg">
<path d="M14.3042 13.263C14.4423 13.4011 14.5198 13.5884 14.5198 13.7837C14.5198 13.9789 14.4423 14.1662 14.3042 14.3043C14.1661 14.4424 13.9788 14.52 13.7835 14.52C13.5883 14.52 13.401 14.4424 13.2629 14.3043L10.117 11.1511L6.97118 14.3043C6.83309 14.4424 6.64581 14.52 6.45053 14.52C6.25526 14.52 6.06797 14.4424 5.92989 14.3043C5.79181 14.1662 5.71423 13.9789 5.71423 13.7837C5.71423 13.5884 5.79181 13.4011 5.92989 13.263L9.08308 10.1172L5.92989 6.9713C5.79181 6.83322 5.71423 6.64594 5.71423 6.45066C5.71423 6.25538 5.79181 6.0681 5.92989 5.93001C6.06797 5.79193 6.25526 5.71436 6.45053 5.71436C6.64581 5.71436 6.83309 5.79193 6.97118 5.93001L10.117 9.0832L13.2629 5.93001C13.401 5.79193 13.5883 5.71436 13.7835 5.71436C13.9788 5.71436 14.1661 5.79193 14.3042 5.93001C14.4423 6.0681 14.5198 6.25538 14.5198 6.45066C14.5198 6.64594 14.4423 6.83322 14.3042 6.9713L11.151 10.1172L14.3042 13.263Z" fill="#707070"/>
<circle opacity="0.4" cx="10" cy="10" r="9.64286" stroke="#707070" stroke-width="0.714286"/>
</svg>
