<svg width="20" height="20" viewBox="0 0 20 20" fill="none" xmlns="http://www.w3.org/2000/svg">
<path d="M14.3043 13.263C14.4424 13.4011 14.52 13.5884 14.52 13.7837C14.52 13.9789 14.4424 14.1662 14.3043 14.3043C14.1662 14.4424 13.9789 14.52 13.7837 14.52C13.5884 14.52 13.4011 14.4424 13.263 14.3043L10.1172 11.1511L6.9713 14.3043C6.83322 14.4424 6.64594 14.52 6.45066 14.52C6.25538 14.52 6.0681 14.4424 5.93001 14.3043C5.79193 14.1662 5.71436 13.9789 5.71436 13.7837C5.71436 13.5884 5.79193 13.4011 5.93001 13.263L9.0832 10.1172L5.93001 6.9713C5.79193 6.83322 5.71436 6.64594 5.71436 6.45066C5.71436 6.25538 5.79193 6.0681 5.93001 5.93001C6.0681 5.79193 6.25538 5.71436 6.45066 5.71436C6.64594 5.71436 6.83322 5.79193 6.9713 5.93001L10.1172 9.0832L13.263 5.93001C13.4011 5.79193 13.5884 5.71436 13.7837 5.71436C13.9789 5.71436 14.1662 5.79193 14.3043 5.93001C14.4424 6.0681 14.52 6.25538 14.52 6.45066C14.52 6.64594 14.4424 6.83322 14.3043 6.9713L11.1511 10.1172L14.3043 13.263Z" fill="#707070"/>
<circle opacity="0.4" cx="10" cy="10" r="9.64286" stroke="#707070" stroke-width="0.714286"/>
</svg>
