<svg width="18" height="18" viewBox="0 0 18 18" fill="none" xmlns="http://www.w3.org/2000/svg">
<path opacity="0.4" d="M6.99922 16.5052H11.5109C15.2706 16.5052 16.7745 15.0014 16.7745 11.2416V6.72994C16.7745 2.9702 15.2706 1.46631 11.5109 1.46631H6.99922C3.23949 1.46631 1.7356 2.9702 1.7356 6.72994V11.2416C1.7356 15.0014 3.23949 16.5052 6.99922 16.5052Z" stroke="#F4334A" stroke-width="1.22919" stroke-linecap="round" stroke-linejoin="round"/>
<path d="M13.1284 6.77059C12.4967 6.71043 11.9177 6.67284 11.3538 6.63524L11.2936 6.27431C11.241 5.91337 11.1282 5.16895 9.99276 5.16895H8.94756C7.82716 5.16895 7.70685 5.88329 7.64669 6.26679L7.58654 6.6202C7.2632 6.64276 6.94738 6.6578 6.62404 6.68788L5.80441 6.77059C5.51867 6.80067 5.31565 7.04881 5.34573 7.33455C5.3758 7.59773 5.59387 7.80076 5.85706 7.80076C5.87209 7.80076 5.89465 7.80076 5.90969 7.80076L6.72179 7.71804C7.17296 7.68045 7.63164 7.64285 8.08281 7.62029C9.00019 7.58269 9.91757 7.59773 10.8425 7.64285C11.5267 7.67293 12.2411 7.72556 13.0231 7.80076C13.0381 7.80076 13.0532 7.80076 13.0682 7.80076C13.3314 7.80076 13.557 7.59773 13.5796 7.33455C13.6172 7.04881 13.4141 6.79315 13.1284 6.77059Z" fill="#F4334A"/>
<path d="M12.3538 8.75566C12.226 8.61279 12.038 8.5376 11.85 8.5376H7.09772C6.90973 8.5376 6.72175 8.62031 6.59392 8.75566C6.46609 8.89853 6.39841 9.08652 6.41344 9.27451L6.64656 12.2522C6.69167 12.8914 6.7443 13.6884 8.18804 13.6884H10.7597C12.2034 13.6884 12.2561 12.8914 12.3012 12.2522L12.5343 9.27451C12.5493 9.08652 12.4817 8.89853 12.3538 8.75566Z" fill="#F4334A"/>
</svg>
