<svg width="16" height="16" viewBox="0 0 16 16" fill="none" xmlns="http://www.w3.org/2000/svg">
<path d="M10.0276 8.70459H8.67134C7.55884 8.70459 6.65259 7.80459 6.65259 6.68584V5.32959C6.65259 5.07334 6.44634 4.86084 6.18384 4.86084H4.20259C2.75884 4.86084 1.59009 5.79834 1.59009 7.47334V11.6233C1.59009 13.2983 2.75884 14.2358 4.20259 14.2358H7.88384C9.32759 14.2358 10.4963 13.2983 10.4963 11.6233V9.17334C10.4963 8.91084 10.2838 8.70459 10.0276 8.70459Z" fill="#848ABD"/>
<path d="M11.4777 1.73584H10.2464H9.56519H7.79644C6.38394 1.73584 5.24019 2.63584 5.19019 4.24209C5.22769 4.24209 5.25894 4.23584 5.29644 4.23584H7.06519H7.74644H8.97769C10.4214 4.23584 11.5902 5.17334 11.5902 6.84834V8.07959V9.77334V11.0046C11.5902 11.0421 11.5839 11.0733 11.5839 11.1046C12.9777 11.0608 14.0902 10.1358 14.0902 8.50459V7.27334V5.57959V4.34834C14.0902 2.67334 12.9214 1.73584 11.4777 1.73584Z" fill="#848ABD"/>
<path d="M7.82749 4.95468C7.63374 4.76093 7.30249 4.89218 7.30249 5.16093V6.79843C7.30249 7.48593 7.88374 8.04843 8.59624 8.04843C9.03999 8.05468 9.65874 8.05468 10.19 8.05468C10.4587 8.05468 10.5962 7.74218 10.4087 7.55468C9.72749 6.87343 8.51499 5.65468 7.82749 4.95468Z" fill="#848ABD"/>
</svg>
