<svg width="18" height="18" viewBox="0 0 18 18" fill="none" xmlns="http://www.w3.org/2000/svg">
<path opacity="0.4" d="M8.2366 1.53271H6.73269C2.97291 1.53271 1.46899 3.03663 1.46899 6.79641V11.3081C1.46899 15.0679 2.97291 16.5718 6.73269 16.5718H11.2444C15.0042 16.5718 16.5081 15.0679 16.5081 11.3081V9.80423" stroke="#32B53F" stroke-width="1.12793" stroke-linecap="round" stroke-linejoin="round"/>
<path d="M15.7081 2.41681C14.3746 1.07587 13.0709 1.04608 11.7002 2.41681L10.8584 3.25117C10.7839 3.32566 10.7615 3.42996 10.7913 3.5268C11.3128 5.35196 12.7729 6.81209 14.5981 7.33356C14.6204 7.34101 14.6577 7.34101 14.68 7.34101C14.7545 7.34101 14.829 7.31121 14.8812 7.25907L15.7081 6.42471C16.386 5.74679 16.7212 5.09867 16.7212 4.43566C16.7212 3.76519 16.386 3.10217 15.7081 2.41681Z" fill="#32B53F"/>
<path d="M13.3542 7.95946C13.153 7.86261 12.9593 7.76577 12.7806 7.65403C12.6316 7.56463 12.4826 7.46778 12.341 7.36349C12.2218 7.28899 12.0877 7.17725 11.9536 7.0655C11.9387 7.05806 11.894 7.02081 11.8344 6.96121C11.6035 6.77497 11.3577 6.52168 11.1267 6.24605C11.1118 6.23115 11.0671 6.18645 11.0299 6.1194C10.9554 6.03746 10.8436 5.89591 10.7468 5.73947C10.6649 5.63518 10.568 5.48618 10.4786 5.32974C10.3669 5.1435 10.27 4.95726 10.1806 4.76357C10.0838 4.55498 10.0093 4.36129 9.94224 4.17505L5.93434 8.18295C5.67361 8.44369 5.42032 8.93536 5.36817 9.30039L5.04784 11.5204C4.98079 11.9897 5.10743 12.4292 5.39797 12.7198C5.64381 12.9656 5.97904 13.0923 6.35152 13.0923C6.43347 13.0923 6.51541 13.0848 6.59736 13.0774L8.8099 12.7645C9.17493 12.7123 9.66661 12.4665 9.92734 12.1983L13.9352 8.1904C13.749 8.1308 13.5628 8.04886 13.3542 7.95946Z" fill="#32B53F"/>
</svg>
