<svg width="18" height="18" viewBox="0 0 18 18" fill="none" xmlns="http://www.w3.org/2000/svg">
<path opacity="0.4" d="M7.90652 1.53271H6.40261C2.64283 1.53271 1.13892 3.03663 1.13892 6.79641V11.3081C1.13892 15.0679 2.64283 16.5718 6.40261 16.5718H10.9143C14.6741 16.5718 16.178 15.0679 16.178 11.3081V9.80423" stroke="#32B53F" stroke-width="1.12793" stroke-linecap="round" stroke-linejoin="round"/>
<path d="M15.378 2.41681C14.0445 1.07587 12.7408 1.04608 11.3701 2.41681L10.5283 3.25117C10.4538 3.32566 10.4315 3.42996 10.4613 3.5268C10.9827 5.35196 12.4429 6.81209 14.268 7.33356C14.2904 7.34101 14.3276 7.34101 14.35 7.34101C14.4245 7.34101 14.499 7.31121 14.5511 7.25907L15.378 6.42471C16.0559 5.74679 16.3912 5.09867 16.3912 4.43566C16.3912 3.76519 16.0559 3.10217 15.378 2.41681Z" fill="#32B53F"/>
<path d="M13.0241 7.95922C12.823 7.86237 12.6293 7.76553 12.4505 7.65378C12.3015 7.56439 12.1525 7.46754 12.0109 7.36325C11.8918 7.28875 11.7577 7.17701 11.6236 7.06526C11.6087 7.05781 11.564 7.02056 11.5044 6.96097C11.2734 6.77472 11.0276 6.52144 10.7967 6.2458C10.7818 6.2309 10.7371 6.1862 10.6998 6.11916C10.6253 6.03721 10.5136 5.89567 10.4167 5.73923C10.3348 5.63493 10.2379 5.48594 10.1485 5.3295C10.0368 5.14326 9.93995 4.95702 9.85055 4.76333C9.75371 4.55474 9.67921 4.36105 9.61217 4.1748L5.60427 8.1827C5.34353 8.44344 5.09024 8.93512 5.03809 9.30015L4.71776 11.5201C4.65071 11.9895 4.77736 12.429 5.06789 12.7195C5.31373 12.9654 5.64896 13.092 6.02144 13.092C6.10339 13.092 6.18534 13.0846 6.26728 13.0771L8.47982 12.7642C8.84485 12.7121 9.33653 12.4662 9.59727 12.1981L13.6052 8.19015C13.4189 8.13056 13.2327 8.04861 13.0241 7.95922Z" fill="#32B53F"/>
</svg>
