<svg width="118" height="41" viewBox="0 0 118 41" fill="none" xmlns="http://www.w3.org/2000/svg">
<path d="M52.017 34.6115L53.4554 28.966H54.5536L55.992 34.6115H55.1491L54.8088 33.1808H53.2079L52.8677 34.6115H52.017ZM53.3626 32.4925H54.6464L54.2597 30.8607C54.1927 30.572 54.136 30.322 54.0896 30.1106C54.0483 29.894 54.02 29.7471 54.0045 29.6698C53.989 29.7471 53.9607 29.894 53.9194 30.1106C53.8782 30.322 53.8215 30.5694 53.7493 30.853L53.3626 32.4925Z" fill="#232323"/>
<path d="M60.2193 34.6889C59.8687 34.6889 59.5619 34.6244 59.299 34.4955C59.0412 34.3615 58.8401 34.1707 58.6958 33.9232C58.5566 33.6706 58.487 33.3767 58.487 33.0416V30.5359C58.487 30.1957 58.5566 29.9018 58.6958 29.6543C58.8401 29.4068 59.0412 29.2186 59.299 29.0897C59.5619 28.9557 59.8687 28.8887 60.2193 28.8887C60.5699 28.8887 60.8741 28.9557 61.1319 29.0897C61.3897 29.2238 61.5882 29.4146 61.7274 29.662C61.8717 29.9044 61.9439 30.1957 61.9439 30.5359H61.1087C61.1087 30.2421 61.0313 30.0178 60.8767 29.8631C60.722 29.7084 60.5029 29.6311 60.2193 29.6311C59.9357 29.6311 59.714 29.7084 59.5542 29.8631C59.3995 30.0178 59.3222 30.2395 59.3222 30.5282V33.0416C59.3222 33.3303 59.3995 33.5546 59.5542 33.7144C59.714 33.8691 59.9357 33.9464 60.2193 33.9464C60.5029 33.9464 60.722 33.8691 60.8767 33.7144C61.0313 33.5546 61.1087 33.3303 61.1087 33.0416H61.9439C61.9439 33.3767 61.8717 33.668 61.7274 33.9155C61.5882 34.163 61.3897 34.3538 61.1319 34.4878C60.8741 34.6219 60.5699 34.6889 60.2193 34.6889Z" fill="#232323"/>
<path d="M66.4032 34.6889C66.0526 34.6889 65.7458 34.6244 65.4829 34.4955C65.2251 34.3615 65.024 34.1707 64.8796 33.9232C64.7404 33.6706 64.6708 33.3767 64.6708 33.0416V30.5359C64.6708 30.1957 64.7404 29.9018 64.8796 29.6543C65.024 29.4068 65.2251 29.2186 65.4829 29.0897C65.7458 28.9557 66.0526 28.8887 66.4032 28.8887C66.7538 28.8887 67.0579 28.9557 67.3157 29.0897C67.5735 29.2238 67.772 29.4146 67.9112 29.662C68.0556 29.9044 68.1278 30.1957 68.1278 30.5359H67.2925C67.2925 30.2421 67.2152 30.0178 67.0605 29.8631C66.9059 29.7084 66.6867 29.6311 66.4032 29.6311C66.1196 29.6311 65.8979 29.7084 65.7381 29.8631C65.5834 30.0178 65.5061 30.2395 65.5061 30.5282V33.0416C65.5061 33.3303 65.5834 33.5546 65.7381 33.7144C65.8979 33.8691 66.1196 33.9464 66.4032 33.9464C66.6867 33.9464 66.9059 33.8691 67.0605 33.7144C67.2152 33.5546 67.2925 33.3303 67.2925 33.0416H68.1278C68.1278 33.3767 68.0556 33.668 67.9112 33.9155C67.772 34.163 67.5735 34.3538 67.3157 34.4878C67.0579 34.6219 66.7538 34.6889 66.4032 34.6889Z" fill="#232323"/>
<path d="M70.963 34.6115V28.966H74.2807V29.7084H71.7827V31.3093H74.01V32.044H71.7827V33.8691H74.2807V34.6115H70.963Z" fill="#232323"/>
<path d="M77.2628 34.6115V28.966H78.0981V33.8459H80.5651V34.6115H77.2628Z" fill="#232323"/>
<path d="M83.3307 34.6115V28.966H86.6484V29.7084H84.1505V31.3093H86.3777V32.044H84.1505V33.8691H86.6484V34.6115H83.3307Z" fill="#232323"/>
<path d="M89.4372 34.6115V28.966H91.2082C91.564 28.966 91.8733 29.0356 92.1363 29.1748C92.3992 29.3089 92.6029 29.4996 92.7472 29.7471C92.8967 29.9946 92.9715 30.2859 92.9715 30.621C92.9715 30.9974 92.8735 31.3248 92.6776 31.6032C92.4868 31.8764 92.2265 32.0698 91.8965 32.1832L93.0488 34.6115H92.0976L91.069 32.2915H90.2725V34.6115H89.4372ZM90.2725 31.5568H91.2082C91.4866 31.5568 91.7083 31.4743 91.8733 31.3093C92.0383 31.1392 92.1208 30.9149 92.1208 30.6365C92.1208 30.3477 92.0383 30.1209 91.8733 29.9559C91.7083 29.7909 91.4866 29.7084 91.2082 29.7084H90.2725V31.5568Z" fill="#232323"/>
<path d="M95.304 34.6115L96.7425 28.966H97.8406L99.2791 34.6115H98.4361L98.0958 33.1808H96.495L96.1547 34.6115H95.304ZM96.6497 32.4925H97.9334L97.5468 30.8607C97.4797 30.572 97.423 30.322 97.3766 30.1106C97.3354 29.894 97.307 29.7471 97.2916 29.6698C97.2761 29.7471 97.2477 29.894 97.2065 30.1106C97.1652 30.322 97.1085 30.5694 97.0363 30.853L96.6497 32.4925Z" fill="#232323"/>
<path d="M103.058 34.6115V29.7316H101.55V28.9583H105.401V29.7316H103.893V34.6115H103.058Z" fill="#232323"/>
<path d="M109.659 34.6889C109.309 34.6889 109.005 34.6244 108.747 34.4955C108.494 34.3615 108.298 34.1707 108.159 33.9232C108.025 33.6706 107.958 33.3767 107.958 33.0416V30.5359C107.958 30.1957 108.025 29.9018 108.159 29.6543C108.298 29.4068 108.494 29.2186 108.747 29.0897C109.005 28.9557 109.309 28.8887 109.659 28.8887C110.01 28.8887 110.311 28.9557 110.564 29.0897C110.822 29.2186 111.018 29.4068 111.152 29.6543C111.291 29.9018 111.361 30.1931 111.361 30.5282V33.0416C111.361 33.3767 111.291 33.6706 111.152 33.9232C111.018 34.1707 110.822 34.3615 110.564 34.4955C110.311 34.6244 110.01 34.6889 109.659 34.6889ZM109.659 33.9464C109.943 33.9464 110.157 33.8691 110.301 33.7144C110.451 33.5546 110.525 33.3303 110.525 33.0416V30.5359C110.525 30.2421 110.451 30.0178 110.301 29.8631C110.157 29.7084 109.943 29.6311 109.659 29.6311C109.381 29.6311 109.167 29.7084 109.017 29.8631C108.868 30.0178 108.793 30.2421 108.793 30.5359V33.0416C108.793 33.3303 108.868 33.5546 109.017 33.7144C109.167 33.8691 109.381 33.9464 109.659 33.9464Z" fill="#232323"/>
<path d="M114.173 34.6115V28.966H115.944C116.299 28.966 116.609 29.0356 116.872 29.1748C117.135 29.3089 117.338 29.4996 117.483 29.7471C117.632 29.9946 117.707 30.2859 117.707 30.621C117.707 30.9974 117.609 31.3248 117.413 31.6032C117.222 31.8764 116.962 32.0698 116.632 32.1832L117.784 34.6115H116.833L115.804 32.2915H115.008V34.6115H114.173ZM115.008 31.5568H115.944C116.222 31.5568 116.444 31.4743 116.609 31.3093C116.774 31.1392 116.856 30.9149 116.856 30.6365C116.856 30.3477 116.774 30.1209 116.609 29.9559C116.444 29.7909 116.222 29.7084 115.944 29.7084H115.008V31.5568Z" fill="#232323"/>
<path d="M61.9121 11.9781C61.8346 11.5098 61.6862 11.0962 61.468 10.7351C61.2609 10.3751 60.9851 10.0636 60.6363 9.7985C60.3018 9.5468 59.9076 9.34875 59.4568 9.20433C59.0183 9.07333 58.542 9.00628 58.026 9.00628C57.0979 9.00628 56.2861 9.22187 55.5895 9.65408C54.9073 10.0739 54.3713 10.699 53.9848 11.5273C53.6116 12.3319 53.4244 13.315 53.4244 14.4806C53.4244 15.6463 53.6116 16.6829 53.9848 17.4875C54.3713 18.3035 54.9129 18.9224 55.6084 19.3422C56.2906 19.7507 57.0913 19.955 58.006 19.955C58.5088 19.955 58.9784 19.8951 59.4169 19.7744C59.8555 19.6434 60.242 19.4557 60.5765 19.2164C60.9242 18.9771 61.2088 18.6821 61.427 18.3344C61.6596 17.9868 61.8191 17.5835 61.9099 17.1275L65.7882 17.1451C65.6897 18.0838 65.2312 18.9276 65.003 19.3783C64.7749 19.8291 64.0883 20.7235 63.4182 21.2877C62.7471 21.8406 61.9553 22.2831 61.0405 22.6204C60.1257 22.932 59.0936 23.0888 57.9473 23.0888C56.3371 23.0888 54.8985 22.7525 53.6359 22.0799C52.3734 21.4084 51.3734 20.4284 50.6391 19.1442C49.9193 17.861 49.5582 16.3054 49.5582 14.4806C49.5582 12.6558 49.9259 11.1003 50.6602 9.81706C51.4088 8.5328 52.4133 7.55388 53.6758 6.88132C54.9383 6.20979 56.3636 5.87351 57.9495 5.87351C58.9939 5.87351 59.9607 6.01174 60.85 6.28819C61.7393 6.55329 62.5323 6.9494 63.2278 7.47652C63.91 7.99331 64.4715 8.62874 64.91 9.38485C65.3486 10.141 65.631 11.0054 65.7606 11.9781H61.9121Z" fill="url(#paint0_linear_177_2423)"/>
<path fill-rule="evenodd" clip-rule="evenodd" d="M85.0162 14.4807C85.0162 16.3044 84.6486 17.861 83.9143 19.1443C83.1656 20.4285 82.1545 21.4074 80.8787 22.08C79.6162 22.7515 78.1853 23.0888 76.5862 23.0888C74.987 23.0888 73.5561 22.7526 72.2936 22.08C71.0178 21.4085 70.0122 20.4285 69.2779 19.1443C68.5437 17.86 68.1705 16.3044 68.1561 14.4807C68.1694 12.6569 68.5426 11.1004 69.2779 9.81714C70.0122 8.53288 71.0178 7.55396 72.2936 6.8814C73.5561 6.20987 74.987 5.87256 76.5862 5.87256C78.1853 5.87256 79.6162 6.20884 80.8787 6.8814C82.1545 7.55292 83.1656 8.53288 83.9143 9.81714C84.6486 11.1014 85.0162 12.6569 85.0162 14.4807ZM81.1689 14.4807C81.1689 13.3047 80.9751 12.3073 80.5886 11.4913C80.2153 10.6754 79.686 10.0565 79.0027 9.63662C78.3205 9.21679 77.5142 9.00635 76.5862 9.00635C75.6581 9.00635 74.8707 9.21679 74.1885 9.63662C73.5063 10.0565 72.9703 10.6754 72.5837 11.4913C72.2105 12.3073 72.0234 13.3047 72.0234 14.4807C72.0234 15.6566 72.2105 16.6727 72.5837 17.4876C72.9703 18.2922 73.5063 18.9049 74.1885 19.3248C74.8707 19.7446 75.6714 19.955 76.5862 19.955C77.5009 19.955 78.3205 19.7446 79.0027 19.3248C79.6849 18.9049 80.2153 18.2932 80.5886 17.4876C80.9751 16.6717 81.1689 15.669 81.1689 14.4807Z" fill="url(#paint1_linear_177_2423)"/>
<path fill-rule="evenodd" clip-rule="evenodd" d="M101.973 9.97897C101.263 8.73081 100.257 7.77665 98.957 7.11544C97.6424 6.44391 96.082 6.1066 94.2779 6.1066H87.8402V22.8721H94.2203C96.051 22.8721 97.6236 22.5358 98.9382 21.8633C100.253 21.1917 101.264 20.2241 101.974 18.9636C102.684 17.7155 103.037 16.2135 103.037 14.462C103.037 12.7105 102.684 11.2261 101.974 9.97794L101.973 9.97897ZM95.3466 19.9766C93.5138 19.9766 91.9035 19.0977 90.971 17.767C90.9444 17.7289 90.9189 17.6917 90.8935 17.6515C90.5646 17.1543 90.3309 16.5983 90.2135 16.0021C90.1559 15.7143 90.126 15.4172 90.126 15.1139C90.126 12.4289 92.4639 10.2523 95.3466 10.2523C95.3577 10.2523 95.3721 10.2523 95.3832 10.2544C95.3987 10.2523 95.412 10.2523 95.4275 10.2523C95.8217 10.2523 96.2071 10.2987 96.5715 10.3875C96.5792 10.3895 96.5892 10.3906 96.597 10.3947C98.8761 10.9156 100.566 12.8312 100.566 15.115C100.566 17.8 98.2283 19.9766 95.3455 19.9766H95.3466Z" fill="url(#paint2_linear_177_2423)"/>
<path d="M105.839 22.8722V6.10769H117.98V9.02487H109.647V13.0221H117.342V15.9392H109.647V19.9364H118V22.8722H105.839Z" fill="url(#paint3_linear_177_2423)"/>
<path fill-rule="evenodd" clip-rule="evenodd" d="M100.566 15.1153C100.566 17.8003 98.2285 19.9769 95.3457 19.9769C93.5129 19.9769 91.9026 19.098 90.9701 17.7673C90.9435 17.7292 90.9181 17.692 90.8926 17.6518C90.8184 17.5394 90.7985 17.5043 90.7985 17.5043C91.8716 15.7146 94.1231 16.383 94.1231 16.383C93.452 17.7962 94.2338 18.7163 95.544 18.7803C98.0192 18.7225 100.004 16.8369 100.004 14.518C100.004 12.5385 98.5574 10.8746 96.595 10.396C98.8742 10.9169 100.564 12.8325 100.564 15.1163L100.566 15.1153Z" fill="#232323"/>
<path d="M98.0669 12.8221C98.0658 12.8149 98.0614 12.8087 98.057 12.8046C98.0514 12.7995 98.0448 12.7964 98.0381 12.7943C97.5575 12.685 96.4478 13.0749 95.8464 13.634C95.739 13.733 95.6416 13.8403 95.5541 13.9558C95.3691 13.9403 95.1831 13.9537 95.0258 14.0177C94.5806 14.2003 94.4499 14.6768 94.4145 14.8821C94.4123 14.8935 94.4134 14.9048 94.4167 14.9162C94.42 14.9275 94.4267 14.9368 94.4344 14.945C94.4433 14.9533 94.4532 14.9595 94.4643 14.9636C94.4754 14.9677 94.4876 14.9688 94.4998 14.9677L95.2152 14.8945C95.2152 14.945 95.2185 14.9946 95.2252 15.0451C95.2285 15.0802 95.2451 15.1122 95.2717 15.1369L95.5485 15.3948C95.5751 15.4195 95.6094 15.435 95.6471 15.4381C95.7003 15.4433 95.7545 15.4464 95.8077 15.4474L95.7291 16.1138C95.7279 16.1251 95.7291 16.1365 95.7335 16.1468C95.7379 16.1571 95.7446 16.1674 95.7534 16.1746C95.7623 16.1829 95.7734 16.188 95.7844 16.1911C95.7955 16.1942 95.8088 16.1953 95.821 16.1932C96.0414 16.1602 96.5541 16.0395 96.749 15.6238C96.8177 15.4763 96.8321 15.305 96.8166 15.1328C96.9406 15.0513 97.0558 14.9605 97.1621 14.8605C97.7657 14.3014 98.181 13.2915 98.0658 12.8211L98.0669 12.8221ZM96.5619 14.1941C96.5065 14.1425 96.4688 14.0775 96.4544 14.0063C96.4389 13.9352 96.4467 13.8619 96.4766 13.7949C96.5065 13.7278 96.5563 13.6711 96.6217 13.6298C96.6859 13.5896 96.7623 13.5679 96.8398 13.5679C96.9174 13.5679 96.9938 13.5896 97.0591 13.6298C97.1234 13.6701 97.1743 13.7278 97.2042 13.7949C97.2341 13.8619 97.2419 13.9352 97.2264 14.0063C97.2109 14.0775 97.1732 14.1425 97.1189 14.1941C97.0824 14.2281 97.0392 14.2549 96.9916 14.2735C96.9439 14.2921 96.893 14.3014 96.841 14.3014C96.7889 14.3014 96.738 14.2921 96.6903 14.2735C96.6427 14.2549 96.5995 14.2281 96.563 14.1941H96.5619Z" fill="#232323"/>
<path d="M95.5314 15.5805C95.486 15.6228 95.4141 15.6383 95.3277 15.6527C95.1328 15.6837 94.9611 15.5269 94.9954 15.3433C95.0087 15.2742 95.0486 15.1762 95.073 15.1535C95.0785 15.1483 95.0818 15.1421 95.0829 15.1349C95.084 15.1277 95.0829 15.1205 95.0796 15.1143C95.0763 15.1081 95.0707 15.1029 95.0641 15.0998C95.0574 15.0967 95.0497 15.0957 95.0419 15.0957C94.9334 15.1081 94.8315 15.1545 94.754 15.2267C94.5613 15.4062 94.5436 16.0736 94.5436 16.0736C94.5436 16.0736 95.2601 16.0571 95.4528 15.8766C95.5303 15.8044 95.5802 15.7095 95.5935 15.6084C95.5968 15.5764 95.5547 15.5578 95.5314 15.5805Z" fill="#232323"/>
<rect width="40.4473" height="40.4473" rx="4.75807" fill="url(#paint4_linear_177_2423)"/>
<path d="M27.1025 8.84512V11.9678C25.2836 10.6865 23.0353 10.3026 21.4696 10.3825C19.7977 10.4683 18.1746 10.979 16.7543 11.8665C15.3335 12.7539 14.1623 13.9893 13.3508 15.4558C12.5387 16.9223 12.1133 18.572 12.1138 20.2486C12.1148 21.9257 12.5422 23.5749 13.3558 25.0404C14.1688 26.5064 15.3415 27.7403 16.7628 28.6263C18.1846 29.5127 19.8076 30.0214 21.48 30.1052C23.0363 30.1826 25.3668 30.1157 27.1025 28.808V31.6421C25.3 32.4567 23.3278 32.8306 21.349 32.7317C19.2313 32.6254 17.1758 31.981 15.3759 30.8589C13.5754 29.7369 12.0904 28.174 11.0607 26.3182C10.0304 24.4619 9.4894 22.3735 9.4884 20.2501C9.48741 18.1267 10.0259 16.0378 11.0542 14.1805C12.0824 12.3232 13.5655 10.7588 15.3644 9.63527C17.1633 8.51119 19.2183 7.8643 21.3356 7.75648C23.3193 7.65515 25.2956 8.02901 27.1025 8.84512Z" fill="white"/>
<path d="M28.4631 9.53711V15.5773C27.0129 13.5568 24.646 12.241 21.9718 12.241C17.559 12.241 13.9821 15.8238 13.9821 20.2433C13.9821 24.6627 17.559 28.2456 21.9718 28.2456C24.646 28.2456 27.0129 26.9298 28.4631 24.9093V30.918C28.4631 30.918 29.7115 30.1643 30.7104 29.1675V11.2741C29.7524 10.3652 29.1152 9.91846 28.4631 9.53711ZM21.9718 25.4948C19.0759 25.4948 16.7285 23.1438 16.7285 20.2433C16.7285 17.3427 19.0759 14.9918 21.9718 14.9918C24.8677 14.9918 27.2146 17.3427 27.2146 20.2433C27.2146 23.1438 24.8672 25.4948 21.9718 25.4948Z" fill="white"/>
<defs>
<linearGradient id="paint0_linear_177_2423" x1="49.5582" y1="5.87256" x2="57.7042" y2="38.256" gradientUnits="userSpaceOnUse">
<stop stop-color="#848ABD"/>
<stop offset="1" stop-color="#383D67"/>
</linearGradient>
<linearGradient id="paint1_linear_177_2423" x1="49.5582" y1="5.87256" x2="57.7042" y2="38.256" gradientUnits="userSpaceOnUse">
<stop stop-color="#848ABD"/>
<stop offset="1" stop-color="#383D67"/>
</linearGradient>
<linearGradient id="paint2_linear_177_2423" x1="49.5582" y1="5.87256" x2="57.7042" y2="38.256" gradientUnits="userSpaceOnUse">
<stop stop-color="#848ABD"/>
<stop offset="1" stop-color="#383D67"/>
</linearGradient>
<linearGradient id="paint3_linear_177_2423" x1="49.5582" y1="5.87256" x2="57.7042" y2="38.256" gradientUnits="userSpaceOnUse">
<stop stop-color="#848ABD"/>
<stop offset="1" stop-color="#383D67"/>
</linearGradient>
<linearGradient id="paint4_linear_177_2423" x1="4.01359" y1="5.21767" x2="61.8093" y2="63.8161" gradientUnits="userSpaceOnUse">
<stop stop-color="#848ABD"/>
<stop offset="1" stop-color="#383D67"/>
</linearGradient>
</defs>
</svg>
