<svg width="118" height="41" viewBox="0 0 118 41" fill="none" xmlns="http://www.w3.org/2000/svg">
<path d="M52.0166 34.6396L53.4551 28.9941H54.5532L55.9917 34.6396H55.1487L54.8084 33.2089H53.2076L52.8673 34.6396H52.0166ZM53.3622 32.5206H54.646L54.2593 30.8888C54.1923 30.6001 54.1356 30.35 54.0892 30.1387C54.048 29.9221 54.0196 29.7752 54.0041 29.6978C53.9887 29.7752 53.9603 29.9221 53.9191 30.1387C53.8778 30.35 53.8211 30.5975 53.7489 30.8811L53.3622 32.5206Z" fill="#232323"/>
<path d="M60.2189 34.717C59.8683 34.717 59.5616 34.6525 59.2986 34.5236C59.0409 34.3896 58.8398 34.1988 58.6954 33.9513C58.5562 33.6987 58.4866 33.4048 58.4866 33.0697V30.564C58.4866 30.2237 58.5562 29.9298 58.6954 29.6824C58.8398 29.4349 59.0409 29.2467 59.2986 29.1178C59.5616 28.9838 59.8683 28.9167 60.2189 28.9167C60.5695 28.9167 60.8737 28.9838 61.1315 29.1178C61.3893 29.2519 61.5878 29.4426 61.727 29.6901C61.8714 29.9324 61.9435 30.2237 61.9435 30.564H61.1083C61.1083 30.2701 61.031 30.0459 60.8763 29.8912C60.7216 29.7365 60.5025 29.6592 60.2189 29.6592C59.9354 29.6592 59.7137 29.7365 59.5538 29.8912C59.3992 30.0459 59.3218 30.2676 59.3218 30.5563V33.0697C59.3218 33.3584 59.3992 33.5827 59.5538 33.7425C59.7137 33.8972 59.9354 33.9745 60.2189 33.9745C60.5025 33.9745 60.7216 33.8972 60.8763 33.7425C61.031 33.5827 61.1083 33.3584 61.1083 33.0697H61.9435C61.9435 33.4048 61.8714 33.6961 61.727 33.9436C61.5878 34.1911 61.3893 34.3818 61.1315 34.5159C60.8737 34.6499 60.5695 34.717 60.2189 34.717Z" fill="#232323"/>
<path d="M66.4028 34.717C66.0522 34.717 65.7454 34.6525 65.4825 34.5236C65.2247 34.3896 65.0236 34.1988 64.8793 33.9513C64.7401 33.6987 64.6705 33.4048 64.6705 33.0697V30.564C64.6705 30.2237 64.7401 29.9298 64.8793 29.6824C65.0236 29.4349 65.2247 29.2467 65.4825 29.1178C65.7454 28.9838 66.0522 28.9167 66.4028 28.9167C66.7534 28.9167 67.0576 28.9838 67.3154 29.1178C67.5732 29.2519 67.7716 29.4426 67.9109 29.6901C68.0552 29.9324 68.1274 30.2237 68.1274 30.564H67.2922C67.2922 30.2701 67.2148 30.0459 67.0602 29.8912C66.9055 29.7365 66.6864 29.6592 66.4028 29.6592C66.1192 29.6592 65.8975 29.7365 65.7377 29.8912C65.583 30.0459 65.5057 30.2676 65.5057 30.5563V33.0697C65.5057 33.3584 65.583 33.5827 65.7377 33.7425C65.8975 33.8972 66.1192 33.9745 66.4028 33.9745C66.6864 33.9745 66.9055 33.8972 67.0602 33.7425C67.2148 33.5827 67.2922 33.3584 67.2922 33.0697H68.1274C68.1274 33.4048 68.0552 33.6961 67.9109 33.9436C67.7716 34.1911 67.5732 34.3818 67.3154 34.5159C67.0576 34.6499 66.7534 34.717 66.4028 34.717Z" fill="#232323"/>
<path d="M70.9626 34.6396V28.9941H74.2803V29.7365H71.7824V31.3374H74.0096V32.0721H71.7824V33.8972H74.2803V34.6396H70.9626Z" fill="#232323"/>
<path d="M77.2625 34.6396V28.9941H78.0977V33.874H80.5647V34.6396H77.2625Z" fill="#232323"/>
<path d="M83.3303 34.6396V28.9941H86.6481V29.7365H84.1501V31.3374H86.3774V32.0721H84.1501V33.8972H86.6481V34.6396H83.3303Z" fill="#232323"/>
<path d="M89.4369 34.6396V28.9941H91.2079C91.5636 28.9941 91.873 29.0637 92.1359 29.2029C92.3988 29.3369 92.6025 29.5277 92.7468 29.7752C92.8964 30.0227 92.9711 30.314 92.9711 30.6491C92.9711 31.0254 92.8732 31.3528 92.6772 31.6312C92.4865 31.9045 92.2261 32.0978 91.8961 32.2113L93.0485 34.6396H92.0972L91.0687 32.3195H90.2721V34.6396H89.4369ZM90.2721 31.5848H91.2079C91.4863 31.5848 91.708 31.5023 91.873 31.3374C92.0379 31.1672 92.1204 30.943 92.1204 30.6645C92.1204 30.3758 92.0379 30.149 91.873 29.984C91.708 29.819 91.4863 29.7365 91.2079 29.7365H90.2721V31.5848Z" fill="#232323"/>
<path d="M95.3036 34.6396L96.7421 28.9941H97.8403L99.2787 34.6396H98.4358L98.0955 33.2089H96.4946L96.1543 34.6396H95.3036ZM96.6493 32.5206H97.9331L97.5464 30.8888C97.4794 30.6001 97.4227 30.35 97.3763 30.1387C97.335 29.9221 97.3067 29.7752 97.2912 29.6978C97.2757 29.7752 97.2474 29.9221 97.2061 30.1387C97.1649 30.35 97.1082 30.5975 97.036 30.8811L96.6493 32.5206Z" fill="#232323"/>
<path d="M103.057 34.6396V29.7597H101.549V28.9864H105.401V29.7597H103.893V34.6396H103.057Z" fill="#232323"/>
<path d="M109.659 34.717C109.308 34.717 109.004 34.6525 108.746 34.5236C108.494 34.3896 108.298 34.1988 108.159 33.9513C108.025 33.6987 107.958 33.4048 107.958 33.0697V30.564C107.958 30.2237 108.025 29.9298 108.159 29.6824C108.298 29.4349 108.494 29.2467 108.746 29.1178C109.004 28.9838 109.308 28.9167 109.659 28.9167C110.01 28.9167 110.311 28.9838 110.564 29.1178C110.822 29.2467 111.017 29.4349 111.152 29.6824C111.291 29.9298 111.36 30.2211 111.36 30.5563V33.0697C111.36 33.4048 111.291 33.6987 111.152 33.9513C111.017 34.1988 110.822 34.3896 110.564 34.5236C110.311 34.6525 110.01 34.717 109.659 34.717ZM109.659 33.9745C109.942 33.9745 110.156 33.8972 110.301 33.7425C110.45 33.5827 110.525 33.3584 110.525 33.0697V30.564C110.525 30.2701 110.45 30.0459 110.301 29.8912C110.156 29.7365 109.942 29.6592 109.659 29.6592C109.381 29.6592 109.167 29.7365 109.017 29.8912C108.868 30.0459 108.793 30.2701 108.793 30.564V33.0697C108.793 33.3584 108.868 33.5827 109.017 33.7425C109.167 33.8972 109.381 33.9745 109.659 33.9745Z" fill="#232323"/>
<path d="M114.172 34.6396V28.9941H115.943C116.299 28.9941 116.608 29.0637 116.871 29.2029C117.134 29.3369 117.338 29.5277 117.482 29.7752C117.632 30.0227 117.707 30.314 117.707 30.6491C117.707 31.0254 117.609 31.3528 117.413 31.6312C117.222 31.9045 116.962 32.0978 116.632 32.2113L117.784 34.6396H116.833L115.804 32.3195H115.008V34.6396H114.172ZM115.008 31.5848H115.943C116.222 31.5848 116.443 31.5023 116.608 31.3374C116.773 31.1672 116.856 30.943 116.856 30.6645C116.856 30.3758 116.773 30.149 116.608 29.984C116.443 29.819 116.222 29.7365 115.943 29.7365H115.008V31.5848Z" fill="#232323"/>
<path d="M61.912 12.0064C61.8344 11.5381 61.686 11.1245 61.4679 10.7634C61.2608 10.4034 60.985 10.0919 60.6362 9.82682C60.3017 9.57512 59.9074 9.37707 59.4567 9.23265C59.0181 9.10165 58.5419 9.0346 58.0258 9.0346C57.0978 9.0346 56.286 9.25019 55.5894 9.6824C54.9072 10.1022 54.3712 10.7273 53.9847 11.5557C53.6115 12.3603 53.4243 13.3433 53.4243 14.5089C53.4243 15.6746 53.6115 16.7113 53.9847 17.5159C54.3712 18.3318 54.9127 18.9507 55.6082 19.3706C56.2904 19.779 57.0911 19.9833 58.0059 19.9833C58.5087 19.9833 58.9783 19.9235 59.4168 19.8028C59.8554 19.6718 60.2419 19.484 60.5764 19.2447C60.9241 19.0054 61.2087 18.7104 61.4269 18.3627C61.6595 18.0151 61.8189 17.6118 61.9097 17.1559L65.7881 17.1734C65.6896 18.1121 65.2311 18.9559 65.0029 19.4067C64.7748 19.8574 64.0881 20.7518 63.4181 21.316C62.747 21.8689 61.9552 22.3115 61.0404 22.6488C60.1256 22.9603 59.0934 23.1171 57.9472 23.1171C56.3369 23.1171 54.8983 22.7808 53.6358 22.1082C52.3733 21.4367 51.3733 20.4568 50.639 19.1725C49.9191 17.8893 49.5581 16.3337 49.5581 14.5089C49.5581 12.6842 49.9258 11.1286 50.66 9.84538C51.4087 8.56113 52.4132 7.5822 53.6757 6.90964C54.9382 6.23811 56.3635 5.90183 57.9494 5.90183C58.9938 5.90183 59.9606 6.04006 60.8499 6.31651C61.7392 6.58161 62.5321 6.97772 63.2276 7.50484C63.9098 8.02163 64.4713 8.65706 64.9099 9.41317C65.3484 10.1693 65.6309 11.0337 65.7604 12.0064H61.912Z" fill="url(#paint0_linear_63_892)"/>
<path fill-rule="evenodd" clip-rule="evenodd" d="M85.0161 14.509C85.0161 16.3328 84.6484 17.8893 83.9142 19.1726C83.1655 20.4568 82.1544 21.4358 80.8786 22.1083C79.6161 22.7798 78.1852 23.1172 76.586 23.1172C74.9868 23.1172 73.556 22.7809 72.2935 22.1083C71.0177 21.4368 70.0121 20.4568 69.2778 19.1726C68.5436 17.8883 68.1703 16.3328 68.1559 14.509C68.1692 12.6853 68.5425 11.1287 69.2778 9.84546C70.0121 8.5612 71.0177 7.58228 72.2935 6.90972C73.556 6.23819 74.9868 5.90088 76.586 5.90088C78.1852 5.90088 79.6161 6.23716 80.8786 6.90972C82.1544 7.58125 83.1655 8.5612 83.9142 9.84546C84.6484 11.1297 85.0161 12.6853 85.0161 14.509ZM81.1688 14.509C81.1688 13.3331 80.9749 12.3356 80.5884 11.5196C80.2152 10.7037 79.6858 10.0848 79.0025 9.66494C78.3203 9.24511 77.5141 9.03467 76.586 9.03467C75.658 9.03467 74.8706 9.24511 74.1884 9.66494C73.5061 10.0848 72.9701 10.7037 72.5836 11.5196C72.2104 12.3356 72.0232 13.3331 72.0232 14.509C72.0232 15.685 72.2104 16.701 72.5836 17.5159C72.9701 18.3205 73.5061 18.9333 74.1884 19.3531C74.8706 19.7729 75.6713 19.9834 76.586 19.9834C77.5008 19.9834 78.3203 19.7729 79.0025 19.3531C79.6847 18.9333 80.2152 18.3216 80.5884 17.5159C80.9749 16.7 81.1688 15.6973 81.1688 14.509Z" fill="url(#paint1_linear_63_892)"/>
<path fill-rule="evenodd" clip-rule="evenodd" d="M101.973 10.0073C101.263 8.75914 100.257 7.80497 98.9569 7.14376C97.6423 6.47223 96.0819 6.13492 94.2778 6.13492H87.84V22.9004H94.2202C96.0508 22.9004 97.6235 22.5641 98.938 21.8916C100.253 21.22 101.264 20.2525 101.974 18.9919C102.684 17.7438 103.037 16.2419 103.037 14.4903C103.037 12.7388 102.684 11.2544 101.974 10.0063L101.973 10.0073ZM95.3465 20.0049C93.5136 20.0049 91.9034 19.126 90.9709 17.7954C90.9443 17.7572 90.9188 17.7201 90.8933 17.6798C90.5644 17.1826 90.3308 16.6266 90.2134 16.0304C90.1558 15.7426 90.1259 15.4455 90.1259 15.1423C90.1259 12.4572 92.4637 10.2806 95.3465 10.2806C95.3576 10.2806 95.372 10.2806 95.383 10.2827C95.3985 10.2806 95.4118 10.2806 95.4273 10.2806C95.8216 10.2806 96.207 10.3271 96.5714 10.4158C96.5791 10.4178 96.5891 10.4189 96.5968 10.423C98.876 10.9439 100.566 12.8595 100.566 15.1433C100.566 17.8284 98.2281 20.0049 95.3454 20.0049H95.3465Z" fill="url(#paint2_linear_63_892)"/>
<path d="M105.839 22.9005V6.13601H117.98V9.05319H109.647V13.0504H117.342V15.9675H109.647V19.9647H118V22.9005H105.839Z" fill="url(#paint3_linear_63_892)"/>
<path fill-rule="evenodd" clip-rule="evenodd" d="M100.566 15.1433C100.566 17.8284 98.2284 20.0049 95.3456 20.0049C93.5128 20.0049 91.9025 19.1261 90.97 17.7954C90.9434 17.7572 90.9179 17.7201 90.8925 17.6799C90.8183 17.5674 90.7983 17.5324 90.7983 17.5324C91.8715 15.7427 94.123 16.4111 94.123 16.4111C93.4518 17.8243 94.2337 18.7444 95.5439 18.8084C98.0191 18.7506 100.004 16.865 100.004 14.5461C100.004 12.5666 98.5573 10.9027 96.5949 10.4241C98.874 10.945 100.564 12.8606 100.564 15.1444L100.566 15.1433Z" fill="#232323"/>
<path d="M98.0667 12.8502C98.0656 12.843 98.0611 12.8368 98.0567 12.8327C98.0512 12.8275 98.0445 12.8244 98.0379 12.8224C97.5572 12.713 96.4476 13.103 95.8462 13.662C95.7388 13.7611 95.6413 13.8683 95.5538 13.9839C95.3689 13.9684 95.1828 13.9818 95.0256 14.0458C94.5804 14.2284 94.4497 14.7049 94.4142 14.9102C94.412 14.9215 94.4131 14.9329 94.4165 14.9442C94.4198 14.9556 94.4264 14.9649 94.4342 14.9731C94.443 14.9814 94.453 14.9876 94.4641 14.9917C94.4752 14.9958 94.4873 14.9968 94.4995 14.9958L95.2149 14.9226C95.2149 14.9731 95.2183 15.0226 95.2249 15.0732C95.2282 15.1083 95.2448 15.1402 95.2714 15.165L95.5483 15.4229C95.5749 15.4476 95.6092 15.4631 95.6469 15.4662C95.7 15.4713 95.7543 15.4744 95.8074 15.4755L95.7288 16.1418C95.7277 16.1532 95.7288 16.1645 95.7332 16.1749C95.7377 16.1852 95.7443 16.1955 95.7532 16.2027C95.762 16.211 95.7731 16.2161 95.7842 16.2192C95.7953 16.2223 95.8085 16.2233 95.8207 16.2213C96.0411 16.1883 96.5539 16.0676 96.7488 15.6519C96.8175 15.5044 96.8319 15.3331 96.8163 15.1609C96.9404 15.0794 97.0556 14.9886 97.1619 14.8885C97.7655 14.3294 98.1808 13.3196 98.0656 12.8492L98.0667 12.8502ZM96.5616 14.2222C96.5063 14.1706 96.4686 14.1056 96.4542 14.0344C96.4387 13.9632 96.4465 13.89 96.4764 13.823C96.5063 13.7559 96.5561 13.6992 96.6214 13.6579C96.6857 13.6177 96.7621 13.596 96.8396 13.596C96.9171 13.596 96.9935 13.6177 97.0589 13.6579C97.1231 13.6981 97.1741 13.7559 97.204 13.823C97.2339 13.89 97.2416 13.9632 97.2261 14.0344C97.2106 14.1056 97.173 14.1706 97.1187 14.2222C97.0821 14.2562 97.0389 14.283 96.9913 14.3016C96.9437 14.3202 96.8928 14.3294 96.8407 14.3294C96.7887 14.3294 96.7377 14.3202 96.6901 14.3016C96.6425 14.283 96.5993 14.2562 96.5627 14.2222H96.5616Z" fill="#232323"/>
<path d="M95.5313 15.6088C95.4859 15.6511 95.4139 15.6666 95.3275 15.6811C95.1326 15.712 94.961 15.5552 94.9953 15.3716C95.0086 15.3025 95.0485 15.2045 95.0728 15.1818C95.0784 15.1766 95.0817 15.1704 95.0828 15.1632C95.0839 15.156 95.0828 15.1488 95.0795 15.1426C95.0762 15.1364 95.0706 15.1312 95.064 15.1281C95.0573 15.1251 95.0496 15.124 95.0418 15.124C94.9333 15.1364 94.8314 15.1828 94.7539 15.255C94.5612 15.4345 94.5435 16.1019 94.5435 16.1019C94.5435 16.1019 95.26 16.0854 95.4527 15.9049C95.5302 15.8327 95.58 15.7378 95.5933 15.6367C95.5967 15.6047 95.5546 15.5861 95.5313 15.6088Z" fill="#232323"/>
<rect y="0.0283203" width="40.4473" height="40.4473" rx="4.75807" fill="url(#paint4_linear_63_892)"/>
<path d="M27.1023 8.8732V11.9958C25.2835 10.7145 23.0352 10.3307 21.4694 10.4106C19.7976 10.4964 18.1745 11.007 16.7542 11.8945C15.3334 12.782 14.1622 14.0174 13.3506 15.4839C12.5386 16.9504 12.1132 18.6 12.1137 20.2767C12.1147 21.9538 12.5421 23.603 13.3556 25.0685C14.1687 26.5345 15.3414 27.7684 16.7627 28.6543C18.1845 29.5408 19.8075 30.0495 21.4799 30.1333C23.0362 30.2107 25.3667 30.1438 27.1023 28.836V31.6702C25.2999 32.4848 23.3276 32.8586 21.3489 32.7598C19.2311 32.6535 17.1757 32.0091 15.3757 30.887C13.5753 29.7649 12.0903 28.2021 11.0605 26.3463C10.0303 24.49 9.48928 22.4015 9.48828 20.2782C9.48729 18.1548 10.0258 16.0659 11.0541 14.2085C12.0823 12.3512 13.5654 10.7869 15.3643 9.66334C17.1632 8.53927 19.2182 7.89237 21.3354 7.78456C23.3192 7.68323 25.2954 8.05709 27.1023 8.8732Z" fill="white"/>
<path d="M28.463 9.56543V15.6056C27.0128 13.5851 24.6459 12.2693 21.9717 12.2693C17.5588 12.2693 13.9819 15.8522 13.9819 20.2716C13.9819 24.691 17.5588 28.2739 21.9717 28.2739C24.6459 28.2739 27.0128 26.9582 28.463 24.9376V30.9463C28.463 30.9463 29.7114 30.1926 30.7102 29.1958V11.3025C29.7522 10.3935 29.1151 9.94678 28.463 9.56543ZM21.9717 25.5231C19.0758 25.5231 16.7284 23.1721 16.7284 20.2716C16.7284 17.3711 19.0758 15.0201 21.9717 15.0201C24.8676 15.0201 27.2145 17.3711 27.2145 20.2716C27.2145 23.1721 24.8671 25.5231 21.9717 25.5231Z" fill="white"/>
<defs>
<linearGradient id="paint0_linear_63_892" x1="49.5581" y1="5.90088" x2="57.704" y2="38.2843" gradientUnits="userSpaceOnUse">
<stop stop-color="#848ABD"/>
<stop offset="1" stop-color="#383D67"/>
</linearGradient>
<linearGradient id="paint1_linear_63_892" x1="49.5581" y1="5.90088" x2="57.704" y2="38.2843" gradientUnits="userSpaceOnUse">
<stop stop-color="#848ABD"/>
<stop offset="1" stop-color="#383D67"/>
</linearGradient>
<linearGradient id="paint2_linear_63_892" x1="49.5581" y1="5.90088" x2="57.704" y2="38.2843" gradientUnits="userSpaceOnUse">
<stop stop-color="#848ABD"/>
<stop offset="1" stop-color="#383D67"/>
</linearGradient>
<linearGradient id="paint3_linear_63_892" x1="49.5581" y1="5.90088" x2="57.704" y2="38.2843" gradientUnits="userSpaceOnUse">
<stop stop-color="#848ABD"/>
<stop offset="1" stop-color="#383D67"/>
</linearGradient>
<linearGradient id="paint4_linear_63_892" x1="4.01359" y1="5.24599" x2="61.8093" y2="63.8444" gradientUnits="userSpaceOnUse">
<stop stop-color="#848ABD"/>
<stop offset="1" stop-color="#383D67"/>
</linearGradient>
</defs>
</svg>
