<svg width="6" height="11" viewBox="0 0 6 11" fill="none" xmlns="http://www.w3.org/2000/svg">
<path d="M1.71385 10.6301L5.71385 6.63011C5.80758 6.53714 5.88197 6.42654 5.93274 6.30468C5.98351 6.18283 6.00965 6.05212 6.00965 5.92011C6.00965 5.7881 5.98351 5.65739 5.93274 5.53553C5.88197 5.41367 5.80758 5.30307 5.71385 5.21011L1.71385 1.21011C1.62061 1.11687 1.50992 1.04291 1.3881 0.992448C1.26627 0.941988 1.13571 0.916016 1.00385 0.916016C0.871988 0.916016 0.741419 0.941988 0.619597 0.992448C0.497775 1.04291 0.387086 1.11687 0.293847 1.21011C0.200609 1.30335 0.126647 1.41404 0.0761871 1.53586C0.0257268 1.65768 -0.000244142 1.78825 -0.000244141 1.92011C-0.00024414 2.05197 0.0257268 2.18254 0.0761871 2.30436C0.126647 2.42618 0.200609 2.53687 0.293847 2.63011L3.59385 5.92011L0.293847 9.21011C0.105543 9.39841 -0.000244141 9.6538 -0.000244141 9.92011C-0.000244141 10.1864 0.105543 10.4418 0.293847 10.6301C0.482151 10.8184 0.737545 10.9242 1.00385 10.9242C1.27015 10.9242 1.52554 10.8184 1.71385 10.6301Z" fill="#707070"/>
</svg>
