<svg width="18" height="17" viewBox="0 0 18 17" fill="none" xmlns="http://www.w3.org/2000/svg">
<path d="M11.9567 0.75H14.858C16.1333 0.75 17.1775 1.79415 17.1775 3.06952V6.25" stroke="#2C3053" stroke-width="1.05" stroke-linecap="round" stroke-linejoin="round"/>
<path d="M11.9568 16.25H14.8581C16.1334 16.25 17.1776 15.2058 17.1776 13.9305V10.75" stroke="#2C3053" stroke-width="1.05" stroke-linecap="round" stroke-linejoin="round"/>
<path d="M6.17639 0.75H3.2751C1.99973 0.75 0.955583 1.79415 0.955583 3.06952V6.25" stroke="#2C3053" stroke-width="1.05" stroke-linecap="round" stroke-linejoin="round"/>
<path d="M6.17627 16.25H3.27498C1.99961 16.25 0.955461 15.2058 0.955461 13.9305V10.75" stroke="#2C3053" stroke-width="1.05" stroke-linecap="round" stroke-linejoin="round"/>
<path opacity="0.4" d="M8.99997 6.40908C8.55946 6.40908 8.12884 6.53971 7.76257 6.78444C7.3963 7.02918 7.11082 7.37703 6.94225 7.784C6.77367 8.19098 6.72957 8.63881 6.8155 9.07085C6.90144 9.5029 7.11357 9.89976 7.42506 10.2112C7.73654 10.5227 8.1334 10.7349 8.56545 10.8208C8.9975 10.9067 9.44532 10.8626 9.8523 10.6941C10.2593 10.5255 10.6071 10.24 10.8519 9.87374C11.0966 9.50747 11.2272 9.07685 11.2272 8.63634C11.2272 8.04563 10.9926 7.47912 10.5749 7.06143C10.1572 6.64374 9.59067 6.40908 8.99997 6.40908ZM8.99997 10.0454C8.72128 10.0454 8.44884 9.96278 8.21712 9.80795C7.9854 9.65312 7.80479 9.43305 7.69814 9.17557C7.59149 8.91809 7.56359 8.63478 7.61796 8.36144C7.67233 8.08811 7.80653 7.83703 8.00359 7.63997C8.20066 7.4429 8.45173 7.3087 8.72507 7.25433C8.9984 7.19996 9.28172 7.22787 9.5392 7.33452C9.79667 7.44117 10.0167 7.62177 10.1716 7.85349C10.3264 8.08522 10.409 8.35765 10.409 8.63634C10.409 9.01005 10.2606 9.36846 9.99634 9.63271C9.73208 9.89696 9.37368 10.0454 8.99997 10.0454ZM13.859 8.05452C13.6809 7.68798 13.448 7.35077 13.1681 7.05453C12.6411 6.49458 12.0271 6.02337 11.3499 5.65909C10.6325 5.25004 9.82548 5.0237 8.99997 5C7.74424 5.06575 6.54556 5.54522 5.5909 6.36363C5.17246 6.69305 4.79817 7.07497 4.47727 7.49998C4.34785 7.67859 4.23525 7.86879 4.14091 8.06816C4.05506 8.24574 4.00708 8.43923 4 8.63634C4.00517 8.83808 4.05321 9.0364 4.14091 9.21815C4.31899 9.5847 4.55197 9.92191 4.83181 10.2181C5.35883 10.7781 5.97279 11.2493 6.64998 11.6136C7.36742 12.0226 8.17445 12.249 8.99997 12.2727C10.2557 12.2069 11.4544 11.7275 12.409 10.9091C12.8346 10.5853 13.2166 10.208 13.5454 9.78633C13.6748 9.60773 13.7874 9.41752 13.8818 9.21815C13.9616 9.03468 14.0019 8.83643 13.9999 8.63634C13.9948 8.4346 13.9467 8.23627 13.859 8.05452ZM13.0272 8.84997C12.888 9.12624 12.7088 9.38048 12.4954 9.60451C12.0444 10.0872 11.5197 10.4953 10.9409 10.8136C10.3488 11.1534 9.68226 11.3423 8.99997 11.3636C7.95293 11.3003 6.95528 10.8965 6.15908 10.2136C5.80434 9.93378 5.48664 9.60997 5.21363 9.24997C5.12073 9.12464 5.04006 8.9907 4.97272 8.84997C4.94031 8.78259 4.91883 8.71048 4.90908 8.63634C4.91883 8.5622 4.94031 8.49009 4.97272 8.4227C5.11198 8.14644 5.29117 7.8922 5.50454 7.66816C5.95556 7.18552 6.48025 6.77742 7.05907 6.45908C7.6511 6.11925 8.31767 5.93036 8.99997 5.90908C10.047 5.97233 11.0447 6.37618 11.8409 7.05908C12.1956 7.33889 12.5133 7.6627 12.7863 8.02271C12.8792 8.14803 12.9599 8.28198 13.0272 8.4227C13.0596 8.49009 13.0811 8.5622 13.0908 8.63634C13.0811 8.71048 13.0596 8.78259 13.0272 8.84997Z" fill="#2C3053"/>
</svg>
