<svg width="6" height="11" viewBox="0 0 6 11" fill="none" xmlns="http://www.w3.org/2000/svg">
<path d="M4.29592 10.6301L0.295918 6.63011C0.20219 6.53714 0.127796 6.42654 0.0770273 6.30468C0.0262585 6.18283 0.000120163 6.05212 0.000120163 5.92011C0.000120163 5.7881 0.0262585 5.65739 0.0770273 5.53553C0.127796 5.41367 0.20219 5.30307 0.295918 5.21011L4.29592 1.21011C4.38916 1.11687 4.49985 1.04291 4.62167 0.992448C4.74349 0.941988 4.87406 0.916016 5.00592 0.916016C5.13778 0.916016 5.26835 0.941988 5.39017 0.992448C5.51199 1.04291 5.62268 1.11687 5.71592 1.21011C5.80916 1.30335 5.88312 1.41404 5.93358 1.53586C5.98404 1.65768 6.01001 1.78825 6.01001 1.92011C6.01001 2.05197 5.98404 2.18254 5.93358 2.30436C5.88312 2.42618 5.80916 2.53687 5.71592 2.63011L2.41592 5.92011L5.71592 9.21011C5.90422 9.39841 6.01001 9.6538 6.01001 9.92011C6.01001 10.1864 5.90422 10.4418 5.71592 10.6301C5.52761 10.8184 5.27222 10.9242 5.00592 10.9242C4.73962 10.9242 4.48422 10.8184 4.29592 10.6301Z" fill="#707070"/>
</svg>
