<svg width="17" height="18" viewBox="0 0 17 18" fill="none" xmlns="http://www.w3.org/2000/svg">
<path opacity="0.4" d="M5.99922 16.5052H10.5109C14.2706 16.5052 15.7745 15.0014 15.7745 11.2416V6.72994C15.7745 2.9702 14.2706 1.46631 10.5109 1.46631H5.99922C2.23949 1.46631 0.735596 2.9702 0.735596 6.72994V11.2416C0.735596 15.0014 2.23949 16.5052 5.99922 16.5052Z" stroke="#F4334A" stroke-width="1.22919" stroke-linecap="round" stroke-linejoin="round"/>
<path d="M12.1284 6.77059C11.4967 6.71043 10.9177 6.67284 10.3538 6.63524L10.2936 6.27431C10.241 5.91337 10.1282 5.16895 8.99276 5.16895H7.94756C6.82716 5.16895 6.70685 5.88329 6.64669 6.26679L6.58654 6.6202C6.2632 6.64276 5.94738 6.6578 5.62404 6.68788L4.80441 6.77059C4.51867 6.80067 4.31565 7.04881 4.34573 7.33455C4.3758 7.59773 4.59387 7.80076 4.85706 7.80076C4.87209 7.80076 4.89465 7.80076 4.90969 7.80076L5.72179 7.71804C6.17296 7.68045 6.63164 7.64285 7.08281 7.62029C8.00019 7.58269 8.91757 7.59773 9.84247 7.64285C10.5267 7.67293 11.2411 7.72556 12.0231 7.80076C12.0381 7.80076 12.0532 7.80076 12.0682 7.80076C12.3314 7.80076 12.557 7.59773 12.5796 7.33455C12.6172 7.04881 12.4141 6.79315 12.1284 6.77059Z" fill="#F4334A"/>
<path d="M11.3538 8.75566C11.226 8.61279 11.038 8.5376 10.85 8.5376H6.09772C5.90973 8.5376 5.72175 8.62031 5.59392 8.75566C5.46609 8.89853 5.39841 9.08652 5.41344 9.27451L5.64656 12.2522C5.69167 12.8914 5.7443 13.6884 7.18804 13.6884H9.75971C11.2034 13.6884 11.2561 12.8914 11.3012 12.2522L11.5343 9.27451C11.5493 9.08652 11.4817 8.89853 11.3538 8.75566Z" fill="#F4334A"/>
</svg>
