<svg width="85" height="73" viewBox="0 0 85 73" fill="none" xmlns="http://www.w3.org/2000/svg">
<g clip-path="url(#clip0_239_195)">
<path d="M38.3795 5.35656C40.2013 2.16835 44.7985 2.16835 46.6203 5.35657L79.0946 62.1865C80.9024 65.3503 78.618 69.2867 74.9742 69.2867H10.0257C6.38182 69.2867 4.0974 65.3503 5.90525 62.1865L38.3795 5.35656Z" stroke="#F4334A" stroke-width="5.69481"/>
<path d="M45.0834 22.7788L44.6277 48.3502H39.7728L39.3171 22.7788H45.0834ZM42.209 59.0064C41.2392 59.0064 40.4096 58.6675 39.7202 57.9898C39.0308 57.3005 38.692 56.4709 38.7037 55.5011C38.692 54.5429 39.0308 53.725 39.7202 53.0473C40.4096 52.358 41.2392 52.0133 42.209 52.0133C43.1554 52.0133 43.9733 52.358 44.6627 53.0473C45.3521 53.725 45.7026 54.5429 45.7143 55.5011C45.7026 56.1437 45.5332 56.7338 45.206 57.2713C44.8906 57.7971 44.4699 58.2177 43.9441 58.5332C43.4183 58.8487 42.84 59.0064 42.209 59.0064Z" fill="#F4334A"/>
</g>
<defs>
<clipPath id="clip0_239_195">
<rect width="83.5239" height="72.1343" fill="white" transform="translate(0.738037)"/>
</clipPath>
</defs>
</svg>
